# xmcd
#
# Track frame offsets:
#	150
#	17390
#	35980
#
# Disc length: 748 seconds
#
# Revision: 0
# Processed by: cddbd v1.5.2PL0 Copyright (c) Steve Scherf et al.
# Submitted via: audiograbber 1.83.01
#
DISCID=1c02ea03
DTITLE=Tina - Joka Solulla [CDM)
DYEAR=1995
DGENRE=Dance
TTITLE0=Joka Solulla (Radio Edit)
TTITLE1=Joka Solulla (SpeedMix)
TTITLE2=Joka Solulla (MaxiMix)
EXTD=TR.
EXTT0=
EXTT1=
EXTT2=
PLAYORDER=
